<svg width="67" height="51" viewBox="0 0 67 51" fill="none" xmlns="http://www.w3.org/2000/svg">
<path d="M57.3628 20.9236C56.9814 20.9236 56.6056 20.9538 56.2353 21.0019C56.527 19.9482 56.6897 18.8343 56.6897 17.6782C56.6897 11.2355 51.8263 6.01517 45.8241 6.01517C43.2718 6.01517 40.927 6.96652 39.0702 8.55009C36.574 3.46821 31.6096 0 25.8823 0C17.6531 0 10.9834 7.1592 10.9834 15.9923C10.9834 16.3114 10.9946 16.6245 11.0115 16.9376C4.80735 17.7565 0 23.4285 0 30.3047C0 37.6626 5.50293 43.6416 12.3297 43.7681C14.6184 48.0311 19.1733 50.9574 24.4406 50.9995C29.5341 51.0417 33.9936 48.3743 36.4057 44.3762C38.3522 46.6582 41.1401 48.1033 44.2534 48.1033C48.7074 48.1033 52.5218 45.159 54.1037 40.9923C55.1247 41.3837 56.2129 41.6125 57.3572 41.6125C62.6807 41.6125 66.9944 36.9822 66.9944 31.2681C67 25.5539 62.6863 20.9236 57.3628 20.9236V20.9236Z" fill="url(#paint0_radial_1_19)"/>
<defs>
<radialGradient id="paint0_radial_1_19" cx="0" cy="0" r="1" gradientUnits="userSpaceOnUse" gradientTransform="translate(18.2376 -1.67449) scale(64.3018 69.0209)">
<stop offset="0.1402" stop-color="#E3F2FD"/>
<stop offset="1" stop-color="#90CAF9"/>
</radialGradient>
</defs>
</svg>
