<svg width="195" height="165" viewBox="0 0 195 165" fill="none" xmlns="http://www.w3.org/2000/svg">
<g clip-path="url(#clip0_1_2)">
<path d="M108.594 37.2568L129.912 7.32613C131.262 5.43271 134.083 6.69984 133.77 9.07391L128.686 46.3453C127.922 51.909 132.352 56.7154 137.546 55.9726L172.345 50.9769C174.553 50.6565 175.711 53.7005 173.926 55.1279L145.765 77.6159C141.553 80.9804 141.526 87.7239 145.683 91.1467L173.571 114.013C175.343 115.47 174.157 118.499 171.949 118.15L137.218 112.703C132.025 111.887 127.554 116.635 128.25 122.213L132.898 159.543C133.197 161.917 130.362 163.155 129.026 161.233L108.063 131.025C104.928 126.51 98.6439 126.466 95.4543 130.938L74.136 160.868C72.7866 162.762 69.9651 161.495 70.2786 159.121L75.3628 121.849C76.1261 116.286 71.6961 111.479 66.5029 112.222L31.7039 117.218C29.4958 117.538 28.3372 114.494 30.1228 113.067L58.27 90.5641C62.4819 87.1996 62.5091 80.4561 58.3518 77.0333L30.4772 54.1811C28.7052 52.7247 29.8911 49.6952 32.0992 50.0447L66.83 55.492C72.0233 56.3076 76.4941 51.5595 75.799 45.9812L71.1509 8.65153C70.851 6.27746 73.6862 5.03945 75.022 6.96201L95.9859 37.1694C99.1209 41.6845 105.405 41.7282 108.594 37.2568V37.2568Z" fill="url(#paint0_radial_1_2)"/>
<path d="M124.965 43.6211L155.402 24.8616C157.337 23.6673 159.477 26.0122 158.332 28.0659L140.217 60.3269C137.505 65.1479 139.863 71.4108 144.92 72.8818L178.806 82.7131C180.959 83.3393 180.918 86.6164 178.765 87.199L144.688 96.2729C139.604 97.6274 137.137 103.832 139.74 108.711L157.228 141.366C158.332 143.434 156.151 145.735 154.243 144.497L124.174 125.082C119.676 122.184 113.842 124.689 112.479 130.122L103.319 166.475C102.733 168.777 99.6798 168.747 99.1346 166.432L90.6836 129.874C89.416 124.412 83.6366 121.761 79.084 124.572L48.6468 143.332C46.7113 144.526 44.5713 142.181 45.7162 140.128L63.8313 107.866C66.5438 103.046 64.1857 96.7827 59.1288 95.3116L25.2431 85.4804C23.0894 84.8541 23.1303 81.577 25.284 80.9944L59.3468 71.9205C64.4311 70.566 66.8982 64.3614 64.2948 59.4822L46.8203 26.8278C45.7162 24.7596 47.8971 22.4584 49.8054 23.6964L79.8746 43.1113C84.3727 46.0097 90.2066 43.5046 91.5696 38.0719L100.729 1.71809C101.316 -0.58315 104.369 -0.55402 104.914 1.76179L113.365 38.3195C114.633 43.7813 120.412 46.4175 124.965 43.6211V43.6211Z" fill="url(#paint1_radial_1_2)"/>
<path d="M102.12 126.146C123.785 126.146 141.349 107.301 141.349 84.0536C141.349 60.8067 123.785 41.9613 102.12 41.9613C80.4542 41.9613 62.8908 60.8067 62.8908 84.0536C62.8908 107.301 80.4542 126.146 102.12 126.146Z" fill="#FFEB3B"/>
<path opacity="0.2" d="M102.174 46.4035C106.863 46.4035 111.443 47.4084 115.791 49.3747C133.606 57.4727 141.976 79.6113 134.424 98.7349C128.917 112.688 116.214 121.718 102.065 121.718C97.3762 121.718 92.7963 120.713 88.4481 118.747C70.6329 110.649 62.2637 88.5104 69.8151 69.3868C75.3219 55.4191 88.0256 46.4035 102.174 46.4035M102.174 42.034C86.9079 42.034 72.364 51.6759 66.053 67.6827C57.6429 89.0201 66.9663 113.737 86.867 122.767C91.8285 125.024 96.9945 126.088 102.079 126.088C117.345 126.088 131.889 116.446 138.2 100.439C146.61 79.1015 137.287 54.385 117.386 45.3548C112.411 43.0973 107.258 42.034 102.174 42.034V42.034Z" fill="#EEEEEE"/>
<path opacity="0.2" d="M102.733 10.5595L108.035 33.4991C108.417 35.1303 109.63 36.3829 111.17 36.7325C111.443 36.7907 111.729 36.8199 112.002 36.8199C113.269 36.8199 114.469 36.1936 115.26 35.1012L128.631 16.3272L125.373 40.2426C125.142 41.903 125.823 43.5488 127.118 44.4809C127.813 44.9762 128.604 45.2383 129.408 45.2383C130.117 45.2383 130.812 45.049 131.453 44.6557L150.985 32.6106L139.59 52.8994C138.786 54.3413 138.813 56.1474 139.686 57.5456C140.449 58.7836 141.744 59.5118 143.107 59.5118C143.284 59.5118 143.475 59.4973 143.652 59.4681L165.543 56.3221L147.441 70.7996C146.187 71.8045 145.588 73.4795 145.874 75.1108C146.174 76.7566 147.305 78.0674 148.818 78.5044L170.613 84.8255L149.159 90.5349C147.632 90.9427 146.46 92.239 146.147 93.8848C145.833 95.5306 146.419 97.2201 147.66 98.2397L165.216 112.644L142.902 109.149C142.698 109.12 142.507 109.105 142.303 109.105C140.967 109.105 139.699 109.804 138.922 111.013C138.036 112.397 137.968 114.188 138.745 115.645L149.977 136.633L131.085 124.427C130.43 124.005 129.694 123.801 128.972 123.801C128.195 123.801 127.418 124.034 126.737 124.515C125.414 125.432 124.719 127.078 124.924 128.753L127.841 152.202L114.401 132.831C113.637 131.724 112.411 131.083 111.129 131.083C110.87 131.083 110.625 131.112 110.366 131.156C108.826 131.462 107.585 132.7 107.177 134.317L101.302 157.62L95.9995 134.681C95.6178 133.05 94.4047 131.797 92.8644 131.447C92.5918 131.389 92.3056 131.36 92.033 131.36C90.7653 131.36 89.5658 131.986 88.7753 133.079L75.4036 151.853L78.6613 127.937C78.8931 126.277 78.2115 124.631 76.9166 123.699C76.2215 123.204 75.4309 122.942 74.6267 122.942C73.9179 122.942 73.2227 123.131 72.5821 123.524L53.0494 135.569L64.4446 115.281C65.2488 113.839 65.2216 112.033 64.3492 110.634C63.5859 109.396 62.291 108.668 60.9279 108.668C60.7507 108.668 60.5599 108.683 60.3827 108.712L38.5056 111.843L56.607 97.3658C57.861 96.3608 58.4608 94.6859 58.1745 93.0546C57.8747 91.4088 56.7433 90.0979 55.2303 89.661L33.435 83.3399L54.8896 77.6305C56.4162 77.2227 57.5884 75.9264 57.9019 74.2806C58.2154 72.6347 57.6293 70.9452 56.3889 69.9257L38.8327 55.5211L61.146 59.0166C61.3505 59.0458 61.5413 59.0603 61.7458 59.0603C63.0816 59.0603 64.3492 58.3612 65.1262 57.1523C66.0121 55.7687 66.0803 53.9772 65.3034 52.5207L54.0717 31.5328L72.9638 43.7381C73.618 44.1605 74.3541 44.3644 75.0765 44.3644C75.8534 44.3644 76.6304 44.1314 77.3119 43.6508C78.6341 42.7332 79.3292 41.0873 79.1248 39.4124L76.2078 15.963L89.6476 35.3342C90.4246 36.4557 91.6513 37.0966 92.9326 37.0966C93.1916 37.0966 93.4369 37.0675 93.6959 37.0238C95.2362 36.7179 96.4766 35.4799 96.8855 33.8632L102.733 10.5595ZM102.815 0C101.915 0 101.016 0.568028 100.729 1.71865L92.9053 32.7417L75.022 6.96198C74.5722 6.30656 73.9452 6.01527 73.3181 6.01527C72.1186 6.01527 70.96 7.0785 71.1509 8.6515L75.0629 39.995L49.819 23.6824C49.4509 23.4494 49.0693 23.3328 48.7013 23.3328C47.1883 23.3328 45.9479 25.1534 46.8339 26.8138L61.7458 54.6909L32.0992 50.0447C31.9765 50.0301 31.8675 50.0156 31.7584 50.0156C29.782 50.0156 28.8006 52.7975 30.4771 54.1811L53.8945 73.3921L25.2839 80.9949C23.1166 81.5775 23.0893 84.8546 25.243 85.4809L54.1535 93.8702L30.1364 113.067C28.4325 114.421 29.4003 117.247 31.3904 117.247C31.4994 117.247 31.5948 117.232 31.7039 117.218L60.9143 113.023L45.7025 140.114C44.762 141.774 46.0024 143.638 47.5427 143.638C47.8971 143.638 48.2651 143.536 48.6331 143.318L74.6267 127.326L70.2922 159.135C70.0741 160.708 71.2463 161.801 72.4594 161.801C73.0728 161.801 73.6862 161.524 74.1496 160.883L92.033 135.744L99.1345 166.447C99.4071 167.612 100.32 168.209 101.234 168.209C102.133 168.209 103.033 167.641 103.319 166.49L111.129 135.453L129.026 161.233C129.476 161.888 130.103 162.179 130.73 162.179C131.93 162.179 133.088 161.116 132.898 159.543L128.986 128.2L154.229 144.512C154.597 144.745 154.979 144.862 155.347 144.862C156.86 144.862 158.101 143.041 157.215 141.381L142.316 113.504L171.949 118.15C172.072 118.164 172.181 118.179 172.29 118.179C174.266 118.179 175.248 115.397 173.571 114.013L150.154 94.8169L178.765 87.1996C180.932 86.617 180.959 83.3399 178.805 82.7136L149.895 74.3243L173.912 55.1278C175.616 53.7733 174.648 50.9477 172.658 50.9477C172.549 50.9477 172.454 50.9623 172.345 50.9769L143.134 55.1715L158.346 28.081C159.286 26.4206 158.046 24.5563 156.506 24.5563C156.151 24.5563 155.783 24.6582 155.415 24.8767L129.422 40.8689L133.756 9.05932C133.974 7.48632 132.802 6.39395 131.589 6.39395C130.976 6.39395 130.362 6.67069 129.899 7.31154L112.015 32.4504L104.914 1.76234C104.641 0.582593 103.728 0 102.815 0V0Z" fill="#EEEEEE"/>
<path d="M20.2406 87.0248H183.808V174.778H20.2406V87.0248Z" fill="url(#paint2_linear_1_2)"/>
<path opacity="0.2" d="M179.719 91.3942V170.408H24.3298V91.3942H179.719ZM183.808 87.0248H20.2406V174.778H183.808V87.0248Z" fill="#424242"/>
<path opacity="0.2" d="M-12.432 102.536C-12.432 102.536 -53.6101 104.401 -32.3599 108.115C-32.3599 108.115 0.176338 111.217 -15.308 113.693C-30.806 116.169 -28.816 121.136 -10.8781 119.898C7.0598 118.66 11.0399 121.762 -2.468 124.864C-15.9759 127.967 -12.432 128.578 7.27788 127.34C26.9877 126.102 23.2121 132.919 11.7078 135.395C0.203597 137.871 8.40923 140.827 25.502 139.531C42.5267 138.235 42.9765 136.181 32.181 135.424C23.0485 134.783 24.3298 127.952 38.7237 126.088C53.1176 124.223 47.5836 121.121 31.1996 121.121C14.8156 121.121 8.3956 116.169 30.0955 114.305C51.7955 112.44 53.7855 111.829 39.8414 111.202C25.8973 110.576 34.9753 108.1 50.4733 105.624C50.4733 105.624 75.4855 101.91 53.7992 101.284L-12.432 102.536Z" fill="#E1F5FE"/>
<path opacity="0.33" d="M76.2216 89.1659C76.2216 89.1659 11.0672 91.8312 44.694 97.162C44.694 97.162 96.1904 101.604 71.6689 105.158C47.1475 108.712 50.2961 115.819 78.6751 114.043C107.054 112.266 113.351 116.708 91.9922 121.15C70.6194 125.592 76.2216 126.481 107.408 124.704C138.595 122.927 131.739 131.258 113.515 134.812C95.3044 138.366 108.035 139.633 135.01 136.968C161.985 134.302 159.191 131.943 146.992 130.923C132.571 129.729 134.383 125.592 157.147 122.927C179.91 120.262 171.159 115.819 145.233 115.819C119.308 115.819 109.153 108.712 143.475 106.046C177.797 103.381 180.959 102.493 158.891 101.604C136.823 100.716 151.19 97.1619 175.711 93.6081C175.711 93.6081 215.295 88.2774 180.959 87.389L76.2216 89.1659Z" fill="#FFF9C4"/>
<path opacity="0.2" d="M65.1262 133.603C65.1262 135.045 60.5191 136.225 54.8079 136.254C49.0966 136.283 44.4895 135.132 44.4759 133.69C44.4759 132.249 49.083 131.069 54.7942 131.054C60.5055 131.04 65.1262 132.161 65.1262 133.603V133.603Z" fill="#E1F5FE"/>
</g>
<defs>
<radialGradient id="paint0_radial_1_2" cx="0" cy="0" r="1" gradientUnits="userSpaceOnUse" gradientTransform="translate(102.026 84.0826) rotate(0.377548) scale(72.5865 77.8829)">
<stop offset="0.3864" stop-color="#FF8F00"/>
<stop offset="0.8182" stop-color="#FFB300"/>
</radialGradient>
<radialGradient id="paint1_radial_1_2" cx="0" cy="0" r="1" gradientUnits="userSpaceOnUse" gradientTransform="translate(102.002 84.0883) rotate(24.5857) scale(73.4248 76.9949)">
<stop offset="0.3864" stop-color="#FF8F00"/>
<stop offset="0.8182" stop-color="#FFB300"/>
</radialGradient>
<linearGradient id="paint2_linear_1_2" x1="102.024" y1="88.0516" x2="102.024" y2="174.53" gradientUnits="userSpaceOnUse">
<stop stop-color="#FFF9C3"/>
<stop offset="0.0984" stop-color="#E4EDC5"/>
<stop offset="0.549" stop-color="#6CB7CB"/>
<stop offset="0.8582" stop-color="#2095CF"/>
<stop offset="1" stop-color="#0288D1"/>
</linearGradient>
<clipPath id="clip0_1_2">
<rect width="195" height="165" fill="white"/>
</clipPath>
</defs>
</svg>
